<?xml version="1.0" encoding="UTF-8" standalone="no"?>
<svg
   xmlns:dc="http://purl.org/dc/elements/1.1/"
   xmlns:cc="http://creativecommons.org/ns#"
   xmlns:rdf="http://www.w3.org/1999/02/22-rdf-syntax-ns#"
   xmlns:svg="http://www.w3.org/2000/svg"
   xmlns="http://www.w3.org/2000/svg"
   xmlns:sodipodi="http://sodipodi.sourceforge.net/DTD/sodipodi-0.dtd"
   xmlns:inkscape="http://www.inkscape.org/namespaces/inkscape"
   version="1.1"
   id="Layer_1"
   x="0px"
   y="0px"
   viewBox="0 0 503.999 503.999"
   style="enable-background:new 0 0 503.999 503.999;"
   fill="#FFB537"
   fill-opacity="0.5"
   xml:space="preserve"
   sodipodi:docname="football-icon.svg"
   inkscape:version="1.0 (6e3e5246a0, 2020-05-07)"><metadata
   id="metadata182"><rdf:RDF><cc:Work
       rdf:about=""><dc:format>image/svg+xml</dc:format><dc:type
         rdf:resource="http://purl.org/dc/dcmitype/StillImage" /></cc:Work></rdf:RDF></metadata><defs
   id="defs180" /><sodipodi:namedview
   inkscape:document-rotation="0"
   pagecolor="#ffffff"
   bordercolor="#666666"
   borderopacity="1"
   objecttolerance="10"
   gridtolerance="10"
   guidetolerance="10"
   inkscape:pageopacity="0"
   inkscape:pageshadow="2"
   inkscape:window-width="2560"
   inkscape:window-height="1044"
   id="namedview178"
   showgrid="false"
   inkscape:zoom="0.58925682"
   inkscape:cx="623.97599"
   inkscape:cy="299.07189"
   inkscape:window-x="1080"
   inkscape:window-y="0"
   inkscape:window-maximized="1"
   inkscape:current-layer="Layer_1" />
<g
   id="g145">
	<g
   id="g143">
		<path
   d="M 383.864,119.79 C 311.108,47.034 207.772,0.022 120.616,0.022 c -39.952,0 -72.312,10.348 -91.1,29.144 -59.36,59.356 -29.2,234.872 90.624,354.696 72.752,72.752 176.076,120.116 263.244,120.116 h 0.012 c 39.944,0 72.3,-10.7 91.088,-29.492 59.36,-59.356 29.2,-234.876 -90.62,-354.696 z m -21.688,225.332 11.62,11.62 c 4.616,4.616 4.616,12.096 0,16.708 -2.304,2.308 -5.328,3.464 -8.352,3.464 -3.028,0 -6.048,-1.156 -8.356,-3.464 l -11.624,-11.62 -43.832,-43.828 -25.608,25.62 c -2.308,2.304 -5.336,3.46 -8.36,3.46 -3.024,0 -6.052,-1.156 -8.356,-3.46 -4.616,-4.616 -4.616,-12.096 -0.004,-16.712 l 25.616,-25.62 -31.468,-31.468 -25.616,25.616 c -2.304,2.308 -5.332,3.46 -8.36,3.46 -3.02,0 -6.044,-1.152 -8.352,-3.464 -4.616,-4.612 -4.616,-12.096 0,-16.712 l 25.616,-25.616 -31.108,-31.116 -25.616,25.616 c -2.304,2.308 -5.336,3.46 -8.36,3.46 -3.024,0 -6.048,-1.152 -8.352,-3.456 -4.616,-4.616 -4.616,-12.1 0,-16.716 l 25.616,-25.616 -43.832,-43.832 c -47.32,-47.312 25.59176,25.28765 -7.32,-7.312 -4.612,-4.612 -4.612,-12.096 0,-16.712 4.612,-4.616 12.096,-4.616 16.708,0 47.32,47.312 -24.01248,-24.00947 7.32,7.312 55.836,55.836 36.57229,36.57739 43.836,43.836 l 25.616,-25.616 c 4.612,-4.616 12.092,-4.612 16.708,0 4.616,4.616 4.616,12.096 0,16.712 l -25.616,25.616 31.124,31.124 25.616,-25.616 c 4.612,-4.612 12.1,-4.608 16.716,0 4.608,4.612 4.608,12.096 -0.004,16.712 l -25.616,25.616 31.464,31.46 25.62,-25.616 c 4.612,-4.612 12.1,-4.612 16.712,0 4.612,4.616 4.612,12.096 0.004,16.716 l -25.62,25.616 z"
   id="path141"
   sodipodi:nodetypes="sscssscscscsccccssccccscscccssscccscccccsccsccccccccc" />
	</g>
</g>
<g
   id="g147">
</g>
<g
   id="g149">
</g>
<g
   id="g151">
</g>
<g
   id="g153">
</g>
<g
   id="g155">
</g>
<g
   id="g157">
</g>
<g
   id="g159">
</g>
<g
   id="g161">
</g>
<g
   id="g163">
</g>
<g
   id="g165">
</g>
<g
   id="g167">
</g>
<g
   id="g169">
</g>
<g
   id="g171">
</g>
<g
   id="g173">
</g>
<g
   id="g175">
</g>
</svg>
