<?xml version="1.0" encoding="iso-8859-1"?>
<!-- Generator: Adobe Illustrator 19.0.0, SVG Export Plug-In . SVG Version: 6.00 Build 0)  -->
<svg version="1.1" id="Layer_1" xmlns="http://www.w3.org/2000/svg" xmlns:xlink="http://www.w3.org/1999/xlink" x="0px" y="0px"
	 viewBox="0 0 503.999 503.999" style="enable-background:new 0 0 503.999 503.999;" fill-opacity="0.06" xml:space="preserve">
<g>
	<g>
		<path d="M383.864,119.79C311.108,47.034,207.772,0.022,120.616,0.022c-39.952,0-72.312,10.348-91.1,29.144
			c-59.36,59.356-29.2,234.872,90.624,354.696c72.752,72.752,176.076,120.116,263.244,120.116c0.008,0,0.008,0,0.012,0
			c39.944,0,72.3-10.7,91.088-29.492C533.844,415.13,503.684,239.61,383.864,119.79z M413.792,365.506l-15.616,15.616l11.62,11.62
			c4.616,4.616,4.616,12.096,0,16.708c-2.304,2.308-5.328,3.464-8.352,3.464c-3.028,0-6.048-1.156-8.356-3.464l-11.624-11.62
			l-15.612,15.616c-2.304,2.308-5.332,3.46-8.352,3.46c-3.024,0-6.056-1.156-8.356-3.46c-4.616-4.616-4.616-12.096,0-16.708
			l15.616-15.616l-11.38-11.38l-15.612,15.616c-2.312,2.308-5.34,3.464-8.36,3.464c-3.024,0-6.052-1.156-8.356-3.46
			c-4.616-4.616-4.616-12.096-0.004-16.712l15.616-15.616l-11.032-11.032l-15.608,15.62c-2.308,2.304-5.336,3.46-8.36,3.46
			s-6.052-1.156-8.356-3.46c-4.616-4.616-4.616-12.096-0.004-16.712l15.616-15.62l-11.38-11.38l-15.616,15.616
			c-2.304,2.308-5.332,3.46-8.356,3.46s-6.048-1.156-8.356-3.46c-4.612-4.612-4.612-12.096,0-16.712l15.616-15.616l-11.376-11.376
			l-15.616,15.616c-2.304,2.308-5.332,3.46-8.36,3.46c-3.02,0-6.044-1.152-8.352-3.464c-4.616-4.612-4.616-12.096,0-16.712
			l15.616-15.616l-11.02-11.024l-15.616,15.616c-2.304,2.304-5.332,3.46-8.356,3.46c-3.024,0-6.048-1.156-8.356-3.464
			c-4.616-4.612-4.616-12.092,0-16.712l15.616-15.616l-11.376-11.376l-15.616,15.616c-2.304,2.308-5.336,3.46-8.36,3.46
			s-6.048-1.152-8.352-3.456c-4.616-4.616-4.616-12.1,0-16.716l15.616-15.616l-11.384-11.376l-15.608,15.616
			c-2.308,2.308-5.336,3.46-8.36,3.46s-6.048-1.152-8.352-3.46c-4.616-4.616-4.616-12.1,0-16.712l15.612-15.616l-11.032-11.032
			l-15.612,15.616c-2.308,2.308-5.336,3.464-8.36,3.464s-6.048-1.156-8.356-3.46c-4.612-4.616-4.612-12.096,0-16.712l15.62-15.62
			l-11.384-11.376l-15.616,15.616c-2.304,2.308-5.328,3.46-8.352,3.46s-6.048-1.152-8.356-3.46c-4.616-4.612-4.616-12.096,0-16.712
			l15.612-15.616l-19.224-19.224c-4.612-4.612-4.612-12.096,0-16.712c4.612-4.616,12.096-4.616,16.708,0l19.228,19.228l15.616-15.62
			c4.616-4.612,12.096-4.612,16.712,0c4.616,4.612,4.616,12.096,0,16.712l-15.616,15.616l11.38,11.376l15.612-15.616
			c4.62-4.616,12.1-4.612,16.716,0c4.612,4.616,4.612,12.1,0,16.712l-15.62,15.616l11.032,11.036l15.62-15.62
			c4.612-4.616,12.096-4.612,16.708,0c4.616,4.616,4.616,12.096,0,16.712l-15.616,15.62l11.384,11.376l15.616-15.616
			c4.612-4.616,12.092-4.612,16.708,0c4.616,4.616,4.616,12.096,0,16.712l-15.616,15.616l11.38,11.38l15.616-15.616
			c4.616-4.612,12.1-4.612,16.712,0.004c4.612,4.612,4.612,12.092-0.004,16.712l-15.612,15.616l11.032,11.028l15.616-15.616
			c4.612-4.612,12.1-4.608,16.716,0c4.608,4.612,4.608,12.096-0.004,16.712l-15.616,15.616l11.376,11.376l15.62-15.62
			c4.612-4.612,12.096-4.612,16.712,0c4.608,4.612,4.608,12.092-0.004,16.712l-15.62,15.616l11.38,11.376l15.62-15.616
			c4.612-4.612,12.1-4.612,16.712,0c4.612,4.616,4.612,12.096,0.004,16.716l-15.62,15.616l11.032,11.028L369,320.71
			c4.616-4.616,12.104-4.616,16.712,0c4.616,4.616,4.616,12.096,0.004,16.712L370.1,353.038l11.376,11.38l15.616-15.62
			c4.616-4.616,12.1-4.616,16.712,0C418.412,353.41,418.412,360.89,413.792,365.506z"/>
	</g>
</g>
<g>
</g>
<g>
</g>
<g>
</g>
<g>
</g>
<g>
</g>
<g>
</g>
<g>
</g>
<g>
</g>
<g>
</g>
<g>
</g>
<g>
</g>
<g>
</g>
<g>
</g>
<g>
</g>
<g>
</g>
</svg>
