<?xml version="1.0" encoding="UTF-8" standalone="no"?>
<svg
   xmlns:dc="http://purl.org/dc/elements/1.1/"
   xmlns:cc="http://creativecommons.org/ns#"
   xmlns:rdf="http://www.w3.org/1999/02/22-rdf-syntax-ns#"
   xmlns:svg="http://www.w3.org/2000/svg"
   xmlns="http://www.w3.org/2000/svg"
   xmlns:sodipodi="http://sodipodi.sourceforge.net/DTD/sodipodi-0.dtd"
   xmlns:inkscape="http://www.inkscape.org/namespaces/inkscape"
   inkscape:version="1.0 (6e3e5246a0, 2020-05-07)"
   sodipodi:docname="football-icon.svg"
   xml:space="preserve"
   fill="#FFB537"
   fill-opacity="0.5"
   style="enable-background:new 0 0 503.999 503.999;"
   viewBox="0 0 503.999 503.999"
   y="0px"
   x="0px"
   id="Layer_1"
   version="1.1"><metadata
   id="metadata182"><rdf:RDF><cc:Work
       rdf:about=""><dc:format>image/svg+xml</dc:format><dc:type
         rdf:resource="http://purl.org/dc/dcmitype/StillImage" /></cc:Work></rdf:RDF></metadata><defs
   id="defs180" /><sodipodi:namedview
   inkscape:current-layer="Layer_1"
   inkscape:window-maximized="1"
   inkscape:window-y="0"
   inkscape:window-x="1080"
   inkscape:cy="385.47115"
   inkscape:cx="429.6594"
   inkscape:zoom="0.41666749"
   showgrid="false"
   id="namedview178"
   inkscape:window-height="1044"
   inkscape:window-width="2560"
   inkscape:pageshadow="2"
   inkscape:pageopacity="0"
   guidetolerance="10"
   gridtolerance="10"
   objecttolerance="10"
   borderopacity="1"
   bordercolor="#666666"
   pagecolor="#ffffff"
   inkscape:document-rotation="0" />
<g
   id="g145">
	<g
   id="g143">
		<path
   sodipodi:nodetypes="sscssscscscccccccccccsccccscccscccccsccsccccccccc"
   id="path141"
   d="M 383.864,119.79 C 311.108,47.034 207.772,0.022 120.616,0.022 c -39.952,0 -72.312,10.348 -91.1,29.144 -59.36,59.356 -29.2,234.872 90.624,354.696 72.752,72.752 176.076,120.116 263.244,120.116 h 0.012 c 39.944,0 72.3,-10.7 91.088,-29.492 59.36,-59.356 29.2,-234.876 -90.62,-354.696 z m -25.688,213.332 11.62,11.62 c 4.616,4.616 0.616,16.096 -4,20.708 -5.7972,5.77676 -16.37266,7.95191 -20.708,4 l -11.624,-11.62 -31.832,-31.828 -21.608,21.62 c -4.80758,2.13817 -15.46527,0.83742 -20.716,-4 -4.616,-4.616 -8.616,-16.096 -4.004,-20.712 l 21.616,-21.62 -23.468,-23.468 -21.616,21.616 c -4.80568,2.14497 -15.26278,2.19828 -20.712,-4.004 -4.616,-4.612 -8.616,-16.096 -4,-20.712 l 21.616,-21.616 -23.108,-23.116 -21.616,21.616 c -4.80003,2.14131 -15.00022,1.66209 -20.712,-3.996 -4.616,-4.616 -8.83422,-16.32906 -4,-20.716 l 21.616,-21.616 -39.832,-39.832 c -47.32,-47.312 25.59176,25.28765 -7.32,-7.312 -4.612,-4.612 -0.612,-16.096 4,-20.712 4.612,-4.616 16.096,-8.616 20.708,-4 47.32,47.312 -24.01248,-24.00947 7.32,7.312 55.836,55.836 32.57229,32.57739 39.836,39.836 l 21.616,-21.616 c 4.612,-4.616 16.092,-0.612 20.708,4 4.616,4.616 8.616,16.096 4,20.712 l -21.616,21.616 23.124,23.124 21.616,-21.616 c 4.612,-4.612 16.1,-0.608 20.716,4 4.608,4.612 8.608,16.096 3.996,20.712 l -21.616,21.616 23.464,23.46 21.62,-21.616 c 4.612,-4.612 16.1,-0.612 20.712,4 4.612,4.616 8.612,16.096 4.004,20.716 l -21.62,21.616 z" />
	</g>
</g>
<g
   id="g147">
</g>
<g
   id="g149">
</g>
<g
   id="g151">
</g>
<g
   id="g153">
</g>
<g
   id="g155">
</g>
<g
   id="g157">
</g>
<g
   id="g159">
</g>
<g
   id="g161">
</g>
<g
   id="g163">
</g>
<g
   id="g165">
</g>
<g
   id="g167">
</g>
<g
   id="g169">
</g>
<g
   id="g171">
</g>
<g
   id="g173">
</g>
<g
   id="g175">
</g>
</svg>
